<svg xmlns="http://www.w3.org/2000/svg" xmlns:xlink="http://www.w3.org/1999/xlink" xmlns:lucid="lucid" width="1160" height="661.6"><g transform="translate(0 -260)" lucid:page-tab-id="0_0"><path d="M20 612a12 12 0 0 1 12-12h216a12 12 0 0 1 12 12v277.6a12 12 0 0 1-12 12H32a12 12 0 0 1-12-12z" stroke="#dfe3e8" stroke-width="2" fill="#fff"/><path d="M76 673.6c0 6.63-5.37 12-12 12s-12-5.37-12-12 5.37-12 12-12 12 5.37 12 12z" stroke="#000" stroke-opacity=".25" fill="#635dff"/><path d="M76 705.6c0 6.63-5.37 12-12 12s-12-5.37-12-12 5.37-12 12-12 12 5.37 12 12zM76 737.6c0 6.63-5.37 12-12 12s-12-5.37-12-12 5.37-12 12-12 12 5.37 12 12zM76 769.6c0 6.63-5.37 12-12 12s-12-5.37-12-12 5.37-12 12-12 12 5.37 12 12z" stroke="#000" stroke-opacity=".25" fill="#f2f3f5"/><path d="M76 801.6c0 6.63-5.37 12-12 12s-12-5.37-12-12 5.37-12 12-12 12 5.37 12 12z" stroke="#000" stroke-opacity=".25" fill="#d916a8"/><path d="M76 833.6c0 6.63-5.37 12-12 12s-12-5.37-12-12 5.37-12 12-12 12 5.37 12 12z" stroke="#000" stroke-opacity=".25" fill="#f2f3f5"/><path d="M76 865.6c0 6.63-5.37 12-12 12s-12-5.37-12-12 5.37-12 12-12 12 5.37 12 12z" stroke="#000" stroke-opacity=".25" fill="#fcce14"/><use xlink:href="#a" transform="matrix(1,0,0,1,52,624) translate(0 14.6)"/><use xlink:href="#b" transform="matrix(1,0,0,1,88,693.6) translate(0 14.8)"/><use xlink:href="#c" transform="matrix(1,0,0,1,88,725.6) translate(0 14.8)"/><use xlink:href="#d" transform="matrix(1,0,0,1,88,757.6) translate(0 14.8)"/><use xlink:href="#e" transform="matrix(1,0,0,1,88,789.6) translate(0 14.8)"/><use xlink:href="#f" transform="matrix(1,0,0,1,88,789.6) translate(14.738888888888889 14.8)"/><use xlink:href="#g" transform="matrix(1,0,0,1,88,789.6) translate(41.144444444444446 14.8)"/><use xlink:href="#h" transform="matrix(1,0,0,1,88,789.6) translate(60.58888888888889 14.8)"/><use xlink:href="#i" transform="matrix(1,0,0,1,88,821.6) translate(0 14.8)"/><use xlink:href="#e" transform="matrix(1,0,0,1,88,661.6) translate(0 14.8)"/><use xlink:href="#h" transform="matrix(1,0,0,1,88,661.6) translate(14.738888888888889 14.8)"/><use xlink:href="#j" transform="matrix(1,0,0,1,88,853.6) translate(0 14.8)"/><path d="M600 612a12 12 0 0 1 12-12h216a12 12 0 0 1 12 12v213.6a12 12 0 0 1-12 12H612a12 12 0 0 1-12-12z" stroke="#dfe3e8" stroke-width="2" fill="#fff"/><path d="M656 673.6c0 6.63-5.37 12-12 12s-12-5.37-12-12 5.37-12 12-12 12 5.37 12 12zM656 705.6c0 6.63-5.37 12-12 12s-12-5.37-12-12 5.37-12 12-12 12 5.37 12 12zM656 737.6c0 6.63-5.37 12-12 12s-12-5.37-12-12 5.37-12 12-12 12 5.37 12 12z" stroke="#000" stroke-opacity=".25" fill="#f2f3f5"/><path d="M656 769.6c0 6.63-5.37 12-12 12s-12-5.37-12-12 5.37-12 12-12 12 5.37 12 12z" stroke="#000" stroke-opacity=".25" fill="#635dff"/><path d="M656 801.6c0 6.63-5.37 12-12 12s-12-5.37-12-12 5.37-12 12-12 12 5.37 12 12z" stroke="#000" stroke-opacity=".25"/><use xlink:href="#k" transform="matrix(1,0,0,1,632,624) translate(0 14.6)"/><use xlink:href="#l" transform="matrix(1,0,0,1,632,624) translate(71.9 14.6)"/><use xlink:href="#m" transform="matrix(1,0,0,1,668,661.6) translate(0 14.8)"/><use xlink:href="#n" transform="matrix(1,0,0,1,668,693.6) translate(0 14.8)"/><use xlink:href="#o" transform="matrix(1,0,0,1,668,693.6) translate(45.07222222222222 14.8)"/><use xlink:href="#p" transform="matrix(1,0,0,1,668,725.6) translate(0 14.8)"/><use xlink:href="#e" transform="matrix(1,0,0,1,668,757.6) translate(0 14.8)"/><use xlink:href="#q" transform="matrix(1,0,0,1,668,757.6) translate(14.738888888888889 14.8)"/><use xlink:href="#e" transform="matrix(1,0,0,1,668,789.6) translate(0 14.8)"/><use xlink:href="#r" transform="matrix(1,0,0,1,668,789.6) translate(14.738888888888889 14.8)"/><path d="M300 292a12 12 0 0 1 12-12h216a12 12 0 0 1 12 12v277.6a12 12 0 0 1-12 12H312a12 12 0 0 1-12-12z" stroke="#dfe3e8" stroke-width="2" fill="#fff"/><path d="M356 353.6c0 6.63-5.37 12-12 12s-12-5.37-12-12 5.37-12 12-12 12 5.37 12 12z" stroke="#000" stroke-opacity=".25" fill="#e81313"/><path d="M356 385.6c0 6.63-5.37 12-12 12s-12-5.37-12-12 5.37-12 12-12 12 5.37 12 12zM356 417.6c0 6.63-5.37 12-12 12s-12-5.37-12-12 5.37-12 12-12 12 5.37 12 12zM356 449.6c0 6.63-5.37 12-12 12s-12-5.37-12-12 5.37-12 12-12 12 5.37 12 12zM356 481.6c0 6.63-5.37 12-12 12s-12-5.37-12-12 5.37-12 12-12 12 5.37 12 12zM356 513.6c0 6.63-5.37 12-12 12s-12-5.37-12-12 5.37-12 12-12 12 5.37 12 12z" stroke="#000" stroke-opacity=".25" fill="#f2f3f5"/><path d="M356 545.6c0 6.63-5.37 12-12 12s-12-5.37-12-12 5.37-12 12-12 12 5.37 12 12z" stroke="#000" stroke-opacity=".25" fill="#008a0e"/><use xlink:href="#s" transform="matrix(1,0,0,1,332,304) translate(0 14.6)"/><use xlink:href="#b" transform="matrix(1,0,0,1,368,373.6) translate(0 14.8)"/><use xlink:href="#t" transform="matrix(1,0,0,1,368,405.6) translate(0 14.8)"/><use xlink:href="#u" transform="matrix(1,0,0,1,368,437.6) translate(0 14.8)"/><use xlink:href="#v" transform="matrix(1,0,0,1,368,469.6) translate(0 14.8)"/><use xlink:href="#w" transform="matrix(1,0,0,1,368,501.6) translate(0 14.8)"/><use xlink:href="#e" transform="matrix(1,0,0,1,368,533.6) translate(0 14.8)"/><use xlink:href="#x" transform="matrix(1,0,0,1,368,533.6) translate(14.738888888888889 14.8)"/><use xlink:href="#e" transform="matrix(1,0,0,1,368,341.6) translate(0 14.8)"/><use xlink:href="#y" transform="matrix(1,0,0,1,368,341.6) translate(14.738888888888889 14.8)"/><path d="M900 292a12 12 0 0 1 12-12h216a12 12 0 0 1 12 12v207.2a12 12 0 0 1-12 12H912a12 12 0 0 1-12-12z" stroke="#dfe3e8" stroke-width="2" fill="#fff"/><path d="M956 353.6c0 6.63-5.37 12-12 12s-12-5.37-12-12 5.37-12 12-12 12 5.37 12 12z" stroke="#000" stroke-opacity=".25" fill="#635dff"/><path d="M956 385.6c0 6.63-5.37 12-12 12s-12-5.37-12-12 5.37-12 12-12 12 5.37 12 12z" stroke="#000" stroke-opacity=".25"/><path d="M956 417.6c0 6.63-5.37 12-12 12s-12-5.37-12-12 5.37-12 12-12 12 5.37 12 12z" stroke="#000" stroke-opacity=".25" fill="#f2f3f5"/><use xlink:href="#z" transform="matrix(1,0,0,1,932,304) translate(0 14.6)"/><use xlink:href="#e" transform="matrix(1,0,0,1,968,341.6) translate(0 14.8)"/><use xlink:href="#h" transform="matrix(1,0,0,1,968,341.6) translate(14.738888888888889 14.8)"/><use xlink:href="#e" transform="matrix(1,0,0,1,968,373.6) translate(0 14.8)"/><use xlink:href="#A" transform="matrix(1,0,0,1,968,373.6) translate(14.738888888888889 14.8)"/><use xlink:href="#B" transform="matrix(1,0,0,1,968,405.6) translate(0 14.8)"/><use xlink:href="#C" transform="matrix(1,0,0,1,968,405.6) translate(45.03333333333333 14.8)"/><path d="M300 612a12 12 0 0 1 12-12h216a12 12 0 0 1 12 12v207.2a12 12 0 0 1-12 12H312a12 12 0 0 1-12-12z" stroke="#dfe3e8" stroke-width="2" fill="#fff"/><path d="M356 673.6c0 6.63-5.37 12-12 12s-12-5.37-12-12 5.37-12 12-12 12 5.37 12 12z" stroke="#000" stroke-opacity=".25" fill="#fcce14"/><path d="M356 705.6c0 6.63-5.37 12-12 12s-12-5.37-12-12 5.37-12 12-12 12 5.37 12 12z" stroke="#000" stroke-opacity=".25" fill="#f2f3f5"/><path d="M356 737.6c0 6.63-5.37 12-12 12s-12-5.37-12-12 5.37-12 12-12 12 5.37 12 12z" stroke="#000" stroke-opacity=".25" fill="#ba23f6"/><use xlink:href="#D" transform="matrix(1,0,0,1,332,624) translate(0 14.6)"/><use xlink:href="#E" transform="matrix(1,0,0,1,332,624) translate(61.900000000000006 14.6)"/><use xlink:href="#e" transform="matrix(1,0,0,1,368,661.6) translate(0 14.8)"/><use xlink:href="#F" transform="matrix(1,0,0,1,368,661.6) translate(14.738888888888889 14.8)"/><use xlink:href="#G" transform="matrix(1,0,0,1,368,693.6) translate(0 14.8)"/><use xlink:href="#e" transform="matrix(1,0,0,1,368,725.6) translate(0 14.8)"/><use xlink:href="#f" transform="matrix(1,0,0,1,368,725.6) translate(14.738888888888889 14.8)"/><use xlink:href="#g" transform="matrix(1,0,0,1,368,725.6) translate(41.144444444444446 14.8)"/><use xlink:href="#h" transform="matrix(1,0,0,1,368,725.6) translate(60.58888888888889 14.8)"/><path d="M600 292a12 12 0 0 1 12-12h216a12 12 0 0 1 12 12v207.2a12 12 0 0 1-12 12H612a12 12 0 0 1-12-12z" stroke="#dfe3e8" stroke-width="2" fill="#fff"/><path d="M656 353.6c0 6.63-5.37 12-12 12s-12-5.37-12-12 5.37-12 12-12 12 5.37 12 12z" stroke="#000" stroke-opacity=".25" fill="#e81313"/><path d="M656 385.6c0 6.63-5.37 12-12 12s-12-5.37-12-12 5.37-12 12-12 12 5.37 12 12z" stroke="#000" stroke-opacity=".25" fill="#008a0e"/><use xlink:href="#H" transform="matrix(1,0,0,1,632,304) translate(0 14.6)"/><use xlink:href="#e" transform="matrix(1,0,0,1,668,341.6) translate(0 14.8)"/><use xlink:href="#y" transform="matrix(1,0,0,1,668,341.6) translate(14.738888888888889 14.8)"/><use xlink:href="#e" transform="matrix(1,0,0,1,668,373.6) translate(0 14.8)"/><use xlink:href="#x" transform="matrix(1,0,0,1,668,373.6) translate(14.738888888888889 14.8)"/><path d="M900 612a12 12 0 0 1 12-12h216a12 12 0 0 1 12 12v213.6a12 12 0 0 1-12 12H912a12 12 0 0 1-12-12z" stroke="#dfe3e8" stroke-width="2" fill="#fff"/><path d="M956 673.6c0 6.63-5.37 12-12 12s-12-5.37-12-12 5.37-12 12-12 12 5.37 12 12z" stroke="#000" stroke-opacity=".25"/><path d="M956 705.6c0 6.63-5.37 12-12 12s-12-5.37-12-12 5.37-12 12-12 12 5.37 12 12zM956 737.6c0 6.63-5.37 12-12 12s-12-5.37-12-12 5.37-12 12-12 12 5.37 12 12zM956 769.6c0 6.63-5.37 12-12 12s-12-5.37-12-12 5.37-12 12-12 12 5.37 12 12zM956 801.6c0 6.63-5.37 12-12 12s-12-5.37-12-12 5.37-12 12-12 12 5.37 12 12z" stroke="#000" stroke-opacity=".25" fill="#f2f3f5"/><g><use xlink:href="#I" transform="matrix(1,0,0,1,932,624) translate(0 14.6)"/><use xlink:href="#J" transform="matrix(1,0,0,1,932,624) translate(54.85000000000001 14.6)"/><use xlink:href="#K" transform="matrix(1,0,0,1,932,624) translate(80.80000000000001 14.6)"/></g><g><use xlink:href="#L" transform="matrix(1,0,0,1,968,693.6) translate(0 14.8)"/></g><g><use xlink:href="#w" transform="matrix(1,0,0,1,968,725.6) translate(0 14.8)"/></g><g><use xlink:href="#u" transform="matrix(1,0,0,1,968,757.6) translate(0 14.8)"/></g><g><use xlink:href="#M" transform="matrix(1,0,0,1,968,789.6) translate(0 14.8)"/></g><g><use xlink:href="#e" transform="matrix(1,0,0,1,968,661.6) translate(0 14.8)"/><use xlink:href="#r" transform="matrix(1,0,0,1,968,661.6) translate(14.738888888888889 14.8)"/></g><path d="M20 292a12 12 0 0 1 12-12h216a12 12 0 0 1 12 12v207.2a12 12 0 0 1-12 12H32a12 12 0 0 1-12-12z" stroke="#dfe3e8" stroke-width="2" fill="#fff"/><path d="M76 353.6c0 6.63-5.37 12-12 12s-12-5.37-12-12 5.37-12 12-12 12 5.37 12 12z" stroke="#000" stroke-opacity=".25" fill="#008a0e"/><path d="M76 385.6c0 6.63-5.37 12-12 12s-12-5.37-12-12 5.37-12 12-12 12 5.37 12 12z" stroke="#000" stroke-opacity=".25" fill="#f2f3f5"/><g><use xlink:href="#N" transform="matrix(1,0,0,1,52,304) translate(0 14.6)"/></g><g><use xlink:href="#e" transform="matrix(1,0,0,1,88,341.6) translate(0 14.8)"/><use xlink:href="#x" transform="matrix(1,0,0,1,88,341.6) translate(14.738888888888889 14.8)"/></g><g><use xlink:href="#O" transform="matrix(1,0,0,1,88,373.6) translate(0 14.8)"/></g><defs><path d="M85 4C-2 5 27-109 22-190h50c7 57-23 150 33 157 60-5 35-97 40-157h50l1 190h-47c-2-12 1-28-3-38-12 25-28 42-61 42" id="P"/><path d="M137-138c1-29-70-34-71-4 15 46 118 7 119 86 1 83-164 76-172 9l43-7c4 19 20 25 44 25 33 8 57-30 24-41C81-84 22-81 20-136c-2-80 154-74 161-7" id="Q"/><path d="M133-34C117-15 103 5 69 4 32 3 11-16 11-54c-1-60 55-63 116-61 1-26-3-47-28-47-18 1-26 9-28 27l-52-2c7-38 36-58 82-57s74 22 75 68l1 82c-1 14 12 18 25 15v27c-30 8-71 5-69-32zm-48 3c29 0 43-24 42-57-32 0-66-3-65 30 0 17 8 27 23 27" id="R"/><path d="M135-150c-39-12-60 13-60 57V0H25l-1-190h47c2 13-1 29 3 40 6-28 27-53 61-41v41" id="S"/><path d="M25-224v-37h50v37H25zM25 0v-190h50V0H25" id="T"/><path d="M110-194c64 0 96 36 96 99 0 64-35 99-97 99-61 0-95-36-95-99 0-62 34-99 96-99zm-1 164c35 0 45-28 45-65 0-40-10-65-43-65-34 0-45 26-45 65 0 36 10 65 43 65" id="U"/><g id="a"><use transform="matrix(0.05,0,0,0.05,0,0)" xlink:href="#P"/><use transform="matrix(0.05,0,0,0.05,10.950000000000001,0)" xlink:href="#Q"/><use transform="matrix(0.05,0,0,0.05,20.950000000000003,0)" xlink:href="#P"/><use transform="matrix(0.05,0,0,0.05,31.900000000000006,0)" xlink:href="#R"/><use transform="matrix(0.05,0,0,0.05,41.900000000000006,0)" xlink:href="#S"/><use transform="matrix(0.05,0,0,0.05,48.900000000000006,0)" xlink:href="#T"/><use transform="matrix(0.05,0,0,0.05,53.900000000000006,0)" xlink:href="#U"/></g><path d="M117-194c89-4 53 116 60 194h-32v-121c0-31-8-49-39-48C34-167 62-67 57 0H25l-1-190h30c1 10-1 24 2 32 11-22 29-35 61-36" id="V"/><path d="M100-194c62-1 85 37 85 99 1 63-27 99-86 99S16-35 15-95c0-66 28-99 85-99zM99-20c44 1 53-31 53-75 0-43-8-75-51-75s-53 32-53 75 10 74 51 75" id="W"/><path d="M210-169c-67 3-38 105-44 169h-31v-121c0-29-5-50-35-48C34-165 62-65 56 0H25l-1-190h30c1 10-1 24 2 32 10-44 99-50 107 0 11-21 27-35 58-36 85-2 47 119 55 194h-31v-121c0-29-5-49-35-48" id="X"/><path d="M115-194c53 0 69 39 70 98 0 66-23 100-70 100C84 3 66-7 56-30L54 0H23l1-261h32v101c10-23 28-34 59-34zm-8 174c40 0 45-34 45-75 0-40-5-75-45-74-42 0-51 32-51 76 0 43 10 73 51 73" id="Y"/><path d="M114-163C36-179 61-72 57 0H25l-1-190h30c1 12-1 29 2 39 6-27 23-49 58-41v29" id="Z"/><path d="M100-194c63 0 86 42 84 106H49c0 40 14 67 53 68 26 1 43-12 49-29l28 8c-11 28-37 45-77 45C44 4 14-33 15-96c1-61 26-98 85-98zm52 81c6-60-76-77-97-28-3 7-6 17-6 28h103" id="aa"/><g id="b"><use transform="matrix(0.03888888888888889,0,0,0.03888888888888889,0,0)" xlink:href="#V"/><use transform="matrix(0.03888888888888889,0,0,0.03888888888888889,7.777777777777778,0)" xlink:href="#W"/><use transform="matrix(0.03888888888888889,0,0,0.03888888888888889,15.555555555555555,0)" xlink:href="#X"/><use transform="matrix(0.03888888888888889,0,0,0.03888888888888889,27.183333333333334,0)" xlink:href="#Y"/><use transform="matrix(0.03888888888888889,0,0,0.03888888888888889,34.96111111111111,0)" xlink:href="#Z"/><use transform="matrix(0.03888888888888889,0,0,0.03888888888888889,39.58888888888889,0)" xlink:href="#aa"/></g><path d="M85-194c31 0 48 13 60 33l-1-100h32l1 261h-30c-2-10 0-23-3-31C134-8 116 4 85 4 32 4 16-35 15-94c0-66 23-100 70-100zm9 24c-40 0-46 34-46 75 0 40 6 74 45 74 42 0 51-32 51-76 0-42-9-74-50-73" id="ab"/><path d="M141-36C126-15 110 5 73 4 37 3 15-17 15-53c-1-64 63-63 125-63 3-35-9-54-41-54-24 1-41 7-42 31l-33-3c5-37 33-52 76-52 45 0 72 20 72 64v82c-1 20 7 32 28 27v20c-31 9-61-2-59-35zM48-53c0 20 12 33 32 33 41-3 63-29 60-74-43 2-92-5-92 41" id="ac"/><g id="c"><use transform="matrix(0.03888888888888889,0,0,0.03888888888888889,0,0)" xlink:href="#aa"/><use transform="matrix(0.03888888888888889,0,0,0.03888888888888889,7.777777777777778,0)" xlink:href="#ab"/><use transform="matrix(0.03888888888888889,0,0,0.03888888888888889,15.555555555555555,0)" xlink:href="#ac"/><use transform="matrix(0.03888888888888889,0,0,0.03888888888888889,23.333333333333332,0)" xlink:href="#ab"/></g><path d="M101-234c-31-9-42 10-38 44h38v23H63V0H32v-167H5v-23h27c-7-52 17-82 69-68v24" id="ad"/><path d="M59-47c-2 24 18 29 38 22v24C64 9 27 4 27-40v-127H5v-23h24l9-43h21v43h35v23H59v120" id="ae"/><g id="d"><use transform="matrix(0.03888888888888889,0,0,0.03888888888888889,0,0)" xlink:href="#ad"/><use transform="matrix(0.03888888888888889,0,0,0.03888888888888889,3.888888888888889,0)" xlink:href="#W"/><use transform="matrix(0.03888888888888889,0,0,0.03888888888888889,11.666666666666666,0)" xlink:href="#ae"/><use transform="matrix(0.03888888888888889,0,0,0.03888888888888889,15.555555555555555,0)" xlink:href="#W"/></g><path d="M24-231v-30h32v30H24zM24 0v-190h32V0H24" id="af"/><g id="e"><use transform="matrix(0.03888888888888889,0,0,0.03888888888888889,0,0)" xlink:href="#af"/><use transform="matrix(0.03888888888888889,0,0,0.03888888888888889,3.0722222222222224,0)" xlink:href="#ab"/></g><path d="M115-194c55 1 70 41 70 98S169 2 115 4C84 4 66-9 55-30l1 105H24l-1-265h31l2 30c10-21 28-34 59-34zm-8 174c40 0 45-34 45-75s-6-73-45-74c-42 0-51 32-51 76 0 43 10 73 51 73" id="ag"/><g id="f"><use transform="matrix(0.03888888888888889,0,0,0.03888888888888889,0,0)" xlink:href="#ae"/><use transform="matrix(0.03888888888888889,0,0,0.03888888888888889,3.888888888888889,0)" xlink:href="#af"/><use transform="matrix(0.03888888888888889,0,0,0.03888888888888889,6.961111111111111,0)" xlink:href="#ag"/><use transform="matrix(0.03888888888888889,0,0,0.03888888888888889,14.738888888888889,0)" xlink:href="#W"/></g><g id="g"><use transform="matrix(0.03888888888888889,0,0,0.03888888888888889,0,0)" xlink:href="#ab"/><use transform="matrix(0.03888888888888889,0,0,0.03888888888888889,7.777777777777778,0)" xlink:href="#aa"/></g><path d="M84 4C-5 8 30-112 23-190h32v120c0 31 7 50 39 49 72-2 45-101 50-169h31l1 190h-30c-1-10 1-25-2-33-11 22-28 36-60 37" id="ah"/><path d="M135-143c-3-34-86-38-87 0 15 53 115 12 119 90S17 21 10-45l28-5c4 36 97 45 98 0-10-56-113-15-118-90-4-57 82-63 122-42 12 7 21 19 24 35" id="ai"/><g id="h"><use transform="matrix(0.03888888888888889,0,0,0.03888888888888889,0,0)" xlink:href="#ah"/><use transform="matrix(0.03888888888888889,0,0,0.03888888888888889,7.777777777777778,0)" xlink:href="#ai"/><use transform="matrix(0.03888888888888889,0,0,0.03888888888888889,14.777777777777779,0)" xlink:href="#ah"/><use transform="matrix(0.03888888888888889,0,0,0.03888888888888889,22.555555555555557,0)" xlink:href="#ac"/><use transform="matrix(0.03888888888888889,0,0,0.03888888888888889,30.333333333333332,0)" xlink:href="#Z"/><use transform="matrix(0.03888888888888889,0,0,0.03888888888888889,34.961111111111116,0)" xlink:href="#af"/><use transform="matrix(0.03888888888888889,0,0,0.03888888888888889,38.03333333333334,0)" xlink:href="#W"/></g><g id="i"><use transform="matrix(0.03888888888888889,0,0,0.03888888888888889,0,0)" xlink:href="#ai"/><use transform="matrix(0.03888888888888889,0,0,0.03888888888888889,7,0)" xlink:href="#ae"/><use transform="matrix(0.03888888888888889,0,0,0.03888888888888889,10.88888888888889,0)" xlink:href="#ac"/><use transform="matrix(0.03888888888888889,0,0,0.03888888888888889,18.666666666666668,0)" xlink:href="#ae"/><use transform="matrix(0.03888888888888889,0,0,0.03888888888888889,22.555555555555557,0)" xlink:href="#ah"/><use transform="matrix(0.03888888888888889,0,0,0.03888888888888889,30.333333333333332,0)" xlink:href="#ai"/></g><path d="M24 0v-261h32V0H24" id="aj"/><g id="j"><use transform="matrix(0.03888888888888889,0,0,0.03888888888888889,0,0)" xlink:href="#X"/><use transform="matrix(0.03888888888888889,0,0,0.03888888888888889,11.627777777777778,0)" xlink:href="#ac"/><use transform="matrix(0.03888888888888889,0,0,0.03888888888888889,19.405555555555555,0)" xlink:href="#af"/><use transform="matrix(0.03888888888888889,0,0,0.03888888888888889,22.477777777777778,0)" xlink:href="#aj"/></g><path d="M88-194c31-1 46 15 58 34l-1-101h50l1 261h-48c-2-10 0-23-3-31C134-8 116 4 84 4 32 4 16-41 15-95c0-56 19-97 73-99zm17 164c33 0 40-30 41-66 1-37-9-64-41-64s-38 30-39 65c0 43 13 65 39 65" id="ak"/><path d="M185-48c-13 30-37 53-82 52C43 2 14-33 14-96s30-98 90-98c62 0 83 45 84 108H66c0 31 8 55 39 56 18 0 30-7 34-22zm-45-69c5-46-57-63-70-21-2 6-4 13-4 21h74" id="al"/><path d="M115-3C79 11 28 4 28-45v-112H4v-33h27l15-45h31v45h36v33H77v99c-1 23 16 31 38 25v30" id="am"/><path d="M25 0v-261h50V0H25" id="an"/><g id="k"><use transform="matrix(0.05,0,0,0.05,0,0)" xlink:href="#ak"/><use transform="matrix(0.05,0,0,0.05,10.950000000000001,0)" xlink:href="#al"/><use transform="matrix(0.05,0,0,0.05,20.950000000000003,0)" xlink:href="#am"/><use transform="matrix(0.05,0,0,0.05,26.900000000000002,0)" xlink:href="#R"/><use transform="matrix(0.05,0,0,0.05,36.900000000000006,0)" xlink:href="#an"/><use transform="matrix(0.05,0,0,0.05,41.900000000000006,0)" xlink:href="#an"/><use transform="matrix(0.05,0,0,0.05,46.900000000000006,0)" xlink:href="#al"/><use transform="matrix(0.05,0,0,0.05,56.900000000000006,0)" xlink:href="#Q"/></g><path d="M135-194c87-1 58 113 63 194h-50c-7-57 23-157-34-157-59 0-34 97-39 157H25l-1-190h47c2 12-1 28 3 38 12-26 28-41 61-42" id="ao"/><path d="M128 0H69L1-190h53L99-40l48-150h52" id="ap"/><g id="l"><use transform="matrix(0.05,0,0,0.05,0,0)" xlink:href="#al"/><use transform="matrix(0.05,0,0,0.05,10,0)" xlink:href="#ao"/><use transform="matrix(0.05,0,0,0.05,20.950000000000003,0)" xlink:href="#ap"/><use transform="matrix(0.05,0,0,0.05,30.950000000000003,0)" xlink:href="#T"/><use transform="matrix(0.05,0,0,0.05,35.95,0)" xlink:href="#U"/></g><path d="M96-169c-40 0-48 33-48 73s9 75 48 75c24 0 41-14 43-38l32 2c-6 37-31 61-74 61-59 0-76-41-82-99-10-93 101-131 147-64 4 7 5 14 7 22l-32 3c-4-21-16-35-41-35" id="aq"/><g id="m"><use transform="matrix(0.03888888888888889,0,0,0.03888888888888889,0,0)" xlink:href="#ab"/><use transform="matrix(0.03888888888888889,0,0,0.03888888888888889,7.777777777777778,0)" xlink:href="#af"/><use transform="matrix(0.03888888888888889,0,0,0.03888888888888889,10.85,0)" xlink:href="#Z"/><use transform="matrix(0.03888888888888889,0,0,0.03888888888888889,15.477777777777778,0)" xlink:href="#aa"/><use transform="matrix(0.03888888888888889,0,0,0.03888888888888889,23.255555555555556,0)" xlink:href="#aq"/><use transform="matrix(0.03888888888888889,0,0,0.03888888888888889,30.255555555555556,0)" xlink:href="#aq"/><use transform="matrix(0.03888888888888889,0,0,0.03888888888888889,37.25555555555556,0)" xlink:href="#af"/><use transform="matrix(0.03888888888888889,0,0,0.03888888888888889,40.327777777777776,0)" xlink:href="#W"/><use transform="matrix(0.03888888888888889,0,0,0.03888888888888889,48.10555555555557,0)" xlink:href="#V"/></g><path d="M177-190C167-65 218 103 67 71c-23-6-38-20-44-43l32-5c15 47 100 32 89-28v-30C133-14 115 1 83 1 29 1 15-40 15-95c0-56 16-97 71-98 29-1 48 16 59 35 1-10 0-23 2-32h30zM94-22c36 0 50-32 50-73 0-42-14-75-50-75-39 0-46 34-46 75s6 73 46 73" id="ar"/><g id="n"><use transform="matrix(0.03888888888888889,0,0,0.03888888888888889,0,0)" xlink:href="#aq"/><use transform="matrix(0.03888888888888889,0,0,0.03888888888888889,7,0)" xlink:href="#W"/><use transform="matrix(0.03888888888888889,0,0,0.03888888888888889,14.777777777777779,0)" xlink:href="#ab"/><use transform="matrix(0.03888888888888889,0,0,0.03888888888888889,22.555555555555557,0)" xlink:href="#af"/><use transform="matrix(0.03888888888888889,0,0,0.03888888888888889,25.627777777777776,0)" xlink:href="#ar"/><use transform="matrix(0.03888888888888889,0,0,0.03888888888888889,33.40555555555556,0)" xlink:href="#W"/></g><g id="o"><use transform="matrix(0.03888888888888889,0,0,0.03888888888888889,0,0)" xlink:href="#ag"/><use transform="matrix(0.03888888888888889,0,0,0.03888888888888889,7.777777777777778,0)" xlink:href="#W"/><use transform="matrix(0.03888888888888889,0,0,0.03888888888888889,15.555555555555555,0)" xlink:href="#ai"/><use transform="matrix(0.03888888888888889,0,0,0.03888888888888889,22.555555555555557,0)" xlink:href="#ae"/><use transform="matrix(0.03888888888888889,0,0,0.03888888888888889,26.444444444444446,0)" xlink:href="#ac"/><use transform="matrix(0.03888888888888889,0,0,0.03888888888888889,34.22222222222222,0)" xlink:href="#aj"/></g><g id="p"><use transform="matrix(0.03888888888888889,0,0,0.03888888888888889,0,0)" xlink:href="#aj"/><use transform="matrix(0.03888888888888889,0,0,0.03888888888888889,3.0722222222222224,0)" xlink:href="#W"/><use transform="matrix(0.03888888888888889,0,0,0.03888888888888889,10.85,0)" xlink:href="#aq"/><use transform="matrix(0.03888888888888889,0,0,0.03888888888888889,17.85,0)" xlink:href="#ac"/><use transform="matrix(0.03888888888888889,0,0,0.03888888888888889,25.627777777777776,0)" xlink:href="#aj"/><use transform="matrix(0.03888888888888889,0,0,0.03888888888888889,28.700000000000006,0)" xlink:href="#af"/><use transform="matrix(0.03888888888888889,0,0,0.03888888888888889,31.772222222222226,0)" xlink:href="#ab"/><use transform="matrix(0.03888888888888889,0,0,0.03888888888888889,39.550000000000004,0)" xlink:href="#ac"/><use transform="matrix(0.03888888888888889,0,0,0.03888888888888889,47.327777777777776,0)" xlink:href="#ab"/></g><path d="M232-93c-1 65-40 97-104 97C67 4 28-28 28-90v-158h33c8 89-33 224 67 224 102 0 64-133 71-224h33v155" id="as"/><g id="q"><use transform="matrix(0.03888888888888889,0,0,0.03888888888888889,0,0)" xlink:href="#as"/><use transform="matrix(0.03888888888888889,0,0,0.03888888888888889,10.072222222222223,0)" xlink:href="#ai"/><use transform="matrix(0.03888888888888889,0,0,0.03888888888888889,17.072222222222223,0)" xlink:href="#ah"/><use transform="matrix(0.03888888888888889,0,0,0.03888888888888889,24.85,0)" xlink:href="#ac"/><use transform="matrix(0.03888888888888889,0,0,0.03888888888888889,32.62777777777778,0)" xlink:href="#Z"/><use transform="matrix(0.03888888888888889,0,0,0.03888888888888889,37.25555555555556,0)" xlink:href="#af"/><use transform="matrix(0.03888888888888889,0,0,0.03888888888888889,40.327777777777776,0)" xlink:href="#W"/></g><path d="M140-251c81 0 123 46 123 126C263-46 219 4 140 4 59 4 17-45 17-125s42-126 123-126zm0 227c63 0 89-41 89-101s-29-99-89-99c-61 0-89 39-89 99S79-25 140-24" id="at"/><g id="r"><use transform="matrix(0.03888888888888889,0,0,0.03888888888888889,0,0)" xlink:href="#at"/><use transform="matrix(0.03888888888888889,0,0,0.03888888888888889,10.88888888888889,0)" xlink:href="#Z"/><use transform="matrix(0.03888888888888889,0,0,0.03888888888888889,15.516666666666667,0)" xlink:href="#ab"/><use transform="matrix(0.03888888888888889,0,0,0.03888888888888889,23.294444444444444,0)" xlink:href="#aa"/><use transform="matrix(0.03888888888888889,0,0,0.03888888888888889,31.072222222222223,0)" xlink:href="#V"/></g><path d="M135-194c53 0 70 44 70 98 0 56-19 98-73 100-31 1-45-17-59-34 3 33 2 69 2 105H25l-1-265h48c2 10 0 23 3 31 11-24 29-35 60-35zM114-30c33 0 39-31 40-66 0-38-9-64-40-64-56 0-55 130 0 130" id="au"/><path d="M190-63c-7 42-38 67-86 67-59 0-84-38-90-98-12-110 154-137 174-36l-49 2c-2-19-15-32-35-32-30 0-35 28-38 64-6 74 65 87 74 30" id="av"/><g id="s"><use transform="matrix(0.05,0,0,0.05,0,0)" xlink:href="#au"/><use transform="matrix(0.05,0,0,0.05,10.950000000000001,0)" xlink:href="#S"/><use transform="matrix(0.05,0,0,0.05,17.950000000000003,0)" xlink:href="#U"/><use transform="matrix(0.05,0,0,0.05,28.900000000000006,0)" xlink:href="#ak"/><use transform="matrix(0.05,0,0,0.05,39.85000000000001,0)" xlink:href="#P"/><use transform="matrix(0.05,0,0,0.05,50.80000000000001,0)" xlink:href="#av"/><use transform="matrix(0.05,0,0,0.05,60.80000000000001,0)" xlink:href="#am"/><use transform="matrix(0.05,0,0,0.05,66.75000000000001,0)" xlink:href="#U"/><use transform="matrix(0.05,0,0,0.05,77.70000000000002,0)" xlink:href="#Q"/></g><g id="t"><use transform="matrix(0.03888888888888889,0,0,0.03888888888888889,0,0)" xlink:href="#ab"/><use transform="matrix(0.03888888888888889,0,0,0.03888888888888889,7.777777777777778,0)" xlink:href="#aa"/><use transform="matrix(0.03888888888888889,0,0,0.03888888888888889,15.555555555555555,0)" xlink:href="#ai"/><use transform="matrix(0.03888888888888889,0,0,0.03888888888888889,22.555555555555557,0)" xlink:href="#aq"/><use transform="matrix(0.03888888888888889,0,0,0.03888888888888889,29.555555555555557,0)" xlink:href="#Z"/><use transform="matrix(0.03888888888888889,0,0,0.03888888888888889,34.18333333333334,0)" xlink:href="#ag"/><use transform="matrix(0.03888888888888889,0,0,0.03888888888888889,41.96111111111111,0)" xlink:href="#aq"/><use transform="matrix(0.03888888888888889,0,0,0.03888888888888889,48.96111111111111,0)" xlink:href="#af"/><use transform="matrix(0.03888888888888889,0,0,0.03888888888888889,52.03333333333333,0)" xlink:href="#W"/><use transform="matrix(0.03888888888888889,0,0,0.03888888888888889,59.811111111111124,0)" xlink:href="#V"/></g><g id="u"><use transform="matrix(0.03888888888888889,0,0,0.03888888888888889,0,0)" xlink:href="#ag"/><use transform="matrix(0.03888888888888889,0,0,0.03888888888888889,7.777777777777778,0)" xlink:href="#Z"/><use transform="matrix(0.03888888888888889,0,0,0.03888888888888889,12.405555555555555,0)" xlink:href="#aa"/><use transform="matrix(0.03888888888888889,0,0,0.03888888888888889,20.183333333333334,0)" xlink:href="#aq"/><use transform="matrix(0.03888888888888889,0,0,0.03888888888888889,27.183333333333334,0)" xlink:href="#af"/><use transform="matrix(0.03888888888888889,0,0,0.03888888888888889,30.255555555555556,0)" xlink:href="#W"/></g><g id="v"><use transform="matrix(0.03888888888888889,0,0,0.03888888888888889,0,0)" xlink:href="#af"/><use transform="matrix(0.03888888888888889,0,0,0.03888888888888889,3.0722222222222224,0)" xlink:href="#X"/><use transform="matrix(0.03888888888888889,0,0,0.03888888888888889,14.700000000000001,0)" xlink:href="#ac"/><use transform="matrix(0.03888888888888889,0,0,0.03888888888888889,22.477777777777778,0)" xlink:href="#ar"/><use transform="matrix(0.03888888888888889,0,0,0.03888888888888889,30.255555555555556,0)" xlink:href="#aa"/><use transform="matrix(0.03888888888888889,0,0,0.03888888888888889,38.03333333333333,0)" xlink:href="#V"/></g><g id="w"><use transform="matrix(0.03888888888888889,0,0,0.03888888888888889,0,0)" xlink:href="#aq"/><use transform="matrix(0.03888888888888889,0,0,0.03888888888888889,7,0)" xlink:href="#ac"/><use transform="matrix(0.03888888888888889,0,0,0.03888888888888889,14.777777777777779,0)" xlink:href="#V"/><use transform="matrix(0.03888888888888889,0,0,0.03888888888888889,22.555555555555557,0)" xlink:href="#ae"/><use transform="matrix(0.03888888888888889,0,0,0.03888888888888889,26.444444444444446,0)" xlink:href="#af"/><use transform="matrix(0.03888888888888889,0,0,0.03888888888888889,29.516666666666666,0)" xlink:href="#ab"/><use transform="matrix(0.03888888888888889,0,0,0.03888888888888889,37.294444444444444,0)" xlink:href="#ac"/><use transform="matrix(0.03888888888888889,0,0,0.03888888888888889,45.07222222222222,0)" xlink:href="#ab"/></g><g id="x"><use transform="matrix(0.03888888888888889,0,0,0.03888888888888889,0,0)" xlink:href="#aq"/><use transform="matrix(0.03888888888888889,0,0,0.03888888888888889,7,0)" xlink:href="#ac"/><use transform="matrix(0.03888888888888889,0,0,0.03888888888888889,14.777777777777779,0)" xlink:href="#ae"/><use transform="matrix(0.03888888888888889,0,0,0.03888888888888889,18.666666666666668,0)" xlink:href="#aa"/><use transform="matrix(0.03888888888888889,0,0,0.03888888888888889,26.444444444444446,0)" xlink:href="#ar"/><use transform="matrix(0.03888888888888889,0,0,0.03888888888888889,34.22222222222222,0)" xlink:href="#W"/><use transform="matrix(0.03888888888888889,0,0,0.03888888888888889,42,0)" xlink:href="#Z"/><use transform="matrix(0.03888888888888889,0,0,0.03888888888888889,46.62777777777778,0)" xlink:href="#af"/><use transform="matrix(0.03888888888888889,0,0,0.03888888888888889,49.7,0)" xlink:href="#ac"/></g><g id="y"><use transform="matrix(0.03888888888888889,0,0,0.03888888888888889,0,0)" xlink:href="#ag"/><use transform="matrix(0.03888888888888889,0,0,0.03888888888888889,7.777777777777778,0)" xlink:href="#Z"/><use transform="matrix(0.03888888888888889,0,0,0.03888888888888889,12.405555555555555,0)" xlink:href="#W"/><use transform="matrix(0.03888888888888889,0,0,0.03888888888888889,20.183333333333334,0)" xlink:href="#ab"/><use transform="matrix(0.03888888888888889,0,0,0.03888888888888889,27.961111111111112,0)" xlink:href="#ah"/><use transform="matrix(0.03888888888888889,0,0,0.03888888888888889,35.73888888888889,0)" xlink:href="#aq"/><use transform="matrix(0.03888888888888889,0,0,0.03888888888888889,42.73888888888889,0)" xlink:href="#ae"/><use transform="matrix(0.03888888888888889,0,0,0.03888888888888889,46.62777777777777,0)" xlink:href="#W"/></g><g id="z"><use transform="matrix(0.05,0,0,0.05,0,0)" xlink:href="#U"/><use transform="matrix(0.05,0,0,0.05,10.950000000000001,0)" xlink:href="#S"/><use transform="matrix(0.05,0,0,0.05,17.950000000000003,0)" xlink:href="#ak"/><use transform="matrix(0.05,0,0,0.05,28.900000000000006,0)" xlink:href="#al"/><use transform="matrix(0.05,0,0,0.05,38.900000000000006,0)" xlink:href="#ao"/></g><g id="A"><use transform="matrix(0.03888888888888889,0,0,0.03888888888888889,0,0)" xlink:href="#W"/><use transform="matrix(0.03888888888888889,0,0,0.03888888888888889,7.777777777777778,0)" xlink:href="#Z"/><use transform="matrix(0.03888888888888889,0,0,0.03888888888888889,12.405555555555555,0)" xlink:href="#ab"/><use transform="matrix(0.03888888888888889,0,0,0.03888888888888889,20.183333333333334,0)" xlink:href="#aa"/><use transform="matrix(0.03888888888888889,0,0,0.03888888888888889,27.961111111111112,0)" xlink:href="#V"/></g><g id="B"><use transform="matrix(0.03888888888888889,0,0,0.03888888888888889,0,0)" xlink:href="#ab"/><use transform="matrix(0.03888888888888889,0,0,0.03888888888888889,7.777777777777778,0)" xlink:href="#aa"/><use transform="matrix(0.03888888888888889,0,0,0.03888888888888889,15.555555555555555,0)" xlink:href="#ae"/><use transform="matrix(0.03888888888888889,0,0,0.03888888888888889,19.444444444444443,0)" xlink:href="#ac"/><use transform="matrix(0.03888888888888889,0,0,0.03888888888888889,27.22222222222222,0)" xlink:href="#aj"/><use transform="matrix(0.03888888888888889,0,0,0.03888888888888889,30.294444444444444,0)" xlink:href="#aj"/><use transform="matrix(0.03888888888888889,0,0,0.03888888888888889,33.36666666666667,0)" xlink:href="#aa"/></g><g id="C"><use transform="matrix(0.03888888888888889,0,0,0.03888888888888889,0,0)" xlink:href="#W"/><use transform="matrix(0.03888888888888889,0,0,0.03888888888888889,7.777777777777778,0)" xlink:href="#Z"/><use transform="matrix(0.03888888888888889,0,0,0.03888888888888889,12.405555555555555,0)" xlink:href="#ab"/><use transform="matrix(0.03888888888888889,0,0,0.03888888888888889,20.183333333333334,0)" xlink:href="#aa"/><use transform="matrix(0.03888888888888889,0,0,0.03888888888888889,27.961111111111112,0)" xlink:href="#V"/></g><g id="D"><use transform="matrix(0.05,0,0,0.05,0,0)" xlink:href="#Q"/><use transform="matrix(0.05,0,0,0.05,10,0)" xlink:href="#al"/><use transform="matrix(0.05,0,0,0.05,20,0)" xlink:href="#Q"/><use transform="matrix(0.05,0,0,0.05,30,0)" xlink:href="#T"/><use transform="matrix(0.05,0,0,0.05,35,0)" xlink:href="#U"/><use transform="matrix(0.05,0,0,0.05,45.95,0)" xlink:href="#ao"/></g><g id="E"><use transform="matrix(0.05,0,0,0.05,0,0)" xlink:href="#P"/><use transform="matrix(0.05,0,0,0.05,10.950000000000001,0)" xlink:href="#Q"/><use transform="matrix(0.05,0,0,0.05,20.950000000000003,0)" xlink:href="#P"/><use transform="matrix(0.05,0,0,0.05,31.900000000000006,0)" xlink:href="#R"/><use transform="matrix(0.05,0,0,0.05,41.900000000000006,0)" xlink:href="#S"/><use transform="matrix(0.05,0,0,0.05,48.900000000000006,0)" xlink:href="#T"/><use transform="matrix(0.05,0,0,0.05,53.900000000000006,0)" xlink:href="#U"/></g><g id="F"><use transform="matrix(0.03888888888888889,0,0,0.03888888888888889,0,0)" xlink:href="#X"/><use transform="matrix(0.03888888888888889,0,0,0.03888888888888889,11.627777777777778,0)" xlink:href="#ac"/><use transform="matrix(0.03888888888888889,0,0,0.03888888888888889,19.405555555555555,0)" xlink:href="#af"/><use transform="matrix(0.03888888888888889,0,0,0.03888888888888889,22.477777777777778,0)" xlink:href="#aj"/></g><path d="M118-194c89-4 53 116 60 194h-32v-121c0-31-8-49-39-48C35-167 63-67 58 0H26l-1-190h30c1 10-1 24 2 32 11-22 29-35 61-36zm47-64c-3 23-9 48-36 47-26-1-65-44-74 0H39c4-23 8-48 36-47s64 44 74 0h16" id="aw"/><g id="G"><use transform="matrix(0.03888888888888889,0,0,0.03888888888888889,0,0)" xlink:href="#aq"/><use transform="matrix(0.03888888888888889,0,0,0.03888888888888889,7,0)" xlink:href="#W"/><use transform="matrix(0.03888888888888889,0,0,0.03888888888888889,14.777777777777779,0)" xlink:href="#V"/><use transform="matrix(0.03888888888888889,0,0,0.03888888888888889,22.555555555555557,0)" xlink:href="#ae"/><use transform="matrix(0.03888888888888889,0,0,0.03888888888888889,26.444444444444446,0)" xlink:href="#Z"/><use transform="matrix(0.03888888888888889,0,0,0.03888888888888889,31.072222222222223,0)" xlink:href="#ac"/><use transform="matrix(0.03888888888888889,0,0,0.03888888888888889,38.85,0)" xlink:href="#ai"/><use transform="matrix(0.03888888888888889,0,0,0.03888888888888889,45.85,0)" xlink:href="#aa"/><use transform="matrix(0.03888888888888889,0,0,0.03888888888888889,53.62777777777778,0)" xlink:href="#aw"/><use transform="matrix(0.03888888888888889,0,0,0.03888888888888889,61.40555555555556,0)" xlink:href="#ac"/></g><g id="H"><use transform="matrix(0.05,0,0,0.05,0,0)" xlink:href="#av"/><use transform="matrix(0.05,0,0,0.05,10,0)" xlink:href="#R"/><use transform="matrix(0.05,0,0,0.05,20,0)" xlink:href="#S"/><use transform="matrix(0.05,0,0,0.05,27,0)" xlink:href="#S"/><use transform="matrix(0.05,0,0,0.05,34,0)" xlink:href="#T"/><use transform="matrix(0.05,0,0,0.05,39,0)" xlink:href="#am"/><use transform="matrix(0.05,0,0,0.05,44.95,0)" xlink:href="#U"/></g><g id="I"><use transform="matrix(0.05,0,0,0.05,0,0)" xlink:href="#U"/><use transform="matrix(0.05,0,0,0.05,10.950000000000001,0)" xlink:href="#S"/><use transform="matrix(0.05,0,0,0.05,17.950000000000003,0)" xlink:href="#ak"/><use transform="matrix(0.05,0,0,0.05,28.900000000000006,0)" xlink:href="#al"/><use transform="matrix(0.05,0,0,0.05,38.900000000000006,0)" xlink:href="#ao"/></g><g id="J"><use transform="matrix(0.05,0,0,0.05,0,0)" xlink:href="#ak"/><use transform="matrix(0.05,0,0,0.05,10.950000000000001,0)" xlink:href="#al"/></g><path d="M220-157c-53 9-28 100-34 157h-49v-107c1-27-5-49-29-50C55-147 81-57 75 0H25l-1-190h47c2 12-1 28 3 38 10-53 101-56 108 0 13-22 24-43 59-42 82 1 51 116 57 194h-49v-107c-1-25-5-48-29-50" id="ax"/><g id="K"><use transform="matrix(0.05,0,0,0.05,0,0)" xlink:href="#av"/><use transform="matrix(0.05,0,0,0.05,10,0)" xlink:href="#U"/><use transform="matrix(0.05,0,0,0.05,20.950000000000003,0)" xlink:href="#ax"/><use transform="matrix(0.05,0,0,0.05,36.95,0)" xlink:href="#au"/><use transform="matrix(0.05,0,0,0.05,47.900000000000006,0)" xlink:href="#S"/><use transform="matrix(0.05,0,0,0.05,54.900000000000006,0)" xlink:href="#R"/></g><g id="L"><use transform="matrix(0.03888888888888889,0,0,0.03888888888888889,0,0)" xlink:href="#ag"/><use transform="matrix(0.03888888888888889,0,0,0.03888888888888889,7.777777777777778,0)" xlink:href="#Z"/><use transform="matrix(0.03888888888888889,0,0,0.03888888888888889,12.405555555555555,0)" xlink:href="#W"/><use transform="matrix(0.03888888888888889,0,0,0.03888888888888889,20.183333333333334,0)" xlink:href="#ab"/><use transform="matrix(0.03888888888888889,0,0,0.03888888888888889,27.961111111111112,0)" xlink:href="#ah"/><use transform="matrix(0.03888888888888889,0,0,0.03888888888888889,35.73888888888889,0)" xlink:href="#aq"/><use transform="matrix(0.03888888888888889,0,0,0.03888888888888889,42.73888888888889,0)" xlink:href="#ae"/><use transform="matrix(0.03888888888888889,0,0,0.03888888888888889,46.62777777777777,0)" xlink:href="#W"/></g><g id="M"><use transform="matrix(0.03888888888888889,0,0,0.03888888888888889,0,0)" xlink:href="#aq"/><use transform="matrix(0.03888888888888889,0,0,0.03888888888888889,7,0)" xlink:href="#ac"/><use transform="matrix(0.03888888888888889,0,0,0.03888888888888889,14.777777777777779,0)" xlink:href="#aj"/><use transform="matrix(0.03888888888888889,0,0,0.03888888888888889,17.85,0)" xlink:href="#af"/><use transform="matrix(0.03888888888888889,0,0,0.03888888888888889,20.922222222222224,0)" xlink:href="#ad"/><use transform="matrix(0.03888888888888889,0,0,0.03888888888888889,24.81111111111111,0)" xlink:href="#af"/><use transform="matrix(0.03888888888888889,0,0,0.03888888888888889,27.88333333333334,0)" xlink:href="#aq"/><use transform="matrix(0.03888888888888889,0,0,0.03888888888888889,34.88333333333334,0)" xlink:href="#ac"/><use transform="matrix(0.03888888888888889,0,0,0.03888888888888889,42.66111111111112,0)" xlink:href="#aq"/><use transform="matrix(0.03888888888888889,0,0,0.03888888888888889,49.66111111111112,0)" xlink:href="#af"/><use transform="matrix(0.03888888888888889,0,0,0.03888888888888889,52.73333333333334,0)" xlink:href="#W"/><use transform="matrix(0.03888888888888889,0,0,0.03888888888888889,60.51111111111112,0)" xlink:href="#V"/></g><path d="M195-6C206 82 75 100 31 46c-4-6-6-13-8-21l49-6c3 16 16 24 34 25 40 0 42-37 40-79-11 22-30 35-61 35-53 0-70-43-70-97 0-56 18-96 73-97 30 0 46 14 59 34l2-30h47zm-90-29c32 0 41-27 41-63 0-35-9-62-40-62-32 0-39 29-40 63 0 36 9 62 39 62" id="ay"/><g id="N"><use transform="matrix(0.05,0,0,0.05,0,0)" xlink:href="#av"/><use transform="matrix(0.05,0,0,0.05,10,0)" xlink:href="#R"/><use transform="matrix(0.05,0,0,0.05,20,0)" xlink:href="#am"/><use transform="matrix(0.05,0,0,0.05,25.950000000000003,0)" xlink:href="#al"/><use transform="matrix(0.05,0,0,0.05,35.95,0)" xlink:href="#ay"/><use transform="matrix(0.05,0,0,0.05,46.900000000000006,0)" xlink:href="#U"/><use transform="matrix(0.05,0,0,0.05,57.85,0)" xlink:href="#S"/><use transform="matrix(0.05,0,0,0.05,64.85000000000001,0)" xlink:href="#T"/><use transform="matrix(0.05,0,0,0.05,69.85000000000001,0)" xlink:href="#R"/></g><path d="M190 0L58-211 59 0H30v-248h39L202-35l-2-213h31V0h-41" id="az"/><g id="O"><use transform="matrix(0.03888888888888889,0,0,0.03888888888888889,0,0)" xlink:href="#az"/><use transform="matrix(0.03888888888888889,0,0,0.03888888888888889,10.072222222222223,0)" xlink:href="#W"/><use transform="matrix(0.03888888888888889,0,0,0.03888888888888889,17.85,0)" xlink:href="#X"/><use transform="matrix(0.03888888888888889,0,0,0.03888888888888889,29.47777777777778,0)" xlink:href="#Y"/><use transform="matrix(0.03888888888888889,0,0,0.03888888888888889,37.25555555555556,0)" xlink:href="#Z"/><use transform="matrix(0.03888888888888889,0,0,0.03888888888888889,41.88333333333334,0)" xlink:href="#aa"/></g></defs></g></svg>